<svg id="Layer_1" data-name="Layer 1" xmlns="http://www.w3.org/2000/svg" viewBox="0 0 46.35 66.9"><defs><style>.cls-1{fill:#326ce5;}.cls-2{fill:#3d9bf9;}.cls-3{fill:#fff;}</style></defs><title>secure-lock-helm</title><path class="cls-1" d="M23.18,55.8" transform="translate(-0.01 0)"/><path class="cls-2" d="M11.88,29.3V19.4A11.19,11.19,0,0,1,23.18,8.6h0V0A18.41,18.41,0,0,0,4.78,17.7V31Z" transform="translate(-0.01 0)"/><path class="cls-2" d="M23.08,35.3" transform="translate(-0.01 0)"/><path class="cls-1" d="M19.38,48.8a1,1,0,0,0-.9-.7h-.2l-5.5.9a11.58,11.58,0,0,0,4.4,5.6l2.1-5.2h0A.6.6,0,0,0,19.38,48.8Z" transform="translate(-0.01 0)"/><path class="cls-1" d="M20,40.6a1,1,0,0,0,1.3-.2c.1-.2.2-.3.2-.5h0l.3-5.6a3.75,3.75,0,0,0-1.1.2,10.37,10.37,0,0,0-5.3,2.9Z" transform="translate(-0.01 0)"/><path class="cls-1" d="M17.58,44.9a1,1,0,0,0,.7-1.2c0-.2-.2-.3-.3-.5h0l-4.2-3.8a11.53,11.53,0,0,0-1.6,7Z" transform="translate(-0.01 0)"/><path class="cls-1" d="M24.88,39.9a1,1,0,0,0,1,.9.72.72,0,0,0,.5-.2h0L31,37.4a11,11,0,0,0-6.4-3.1Z" transform="translate(-0.01 0)"/><polygon class="cls-1" points="21.57 46.5 23.17 47.3 24.67 46.5 25.07 44.9 24.07 43.5 22.27 43.5 21.27 44.8 21.57 46.5"/><path class="cls-1" d="M46.28,49.3l-4-17.3a3.69,3.69,0,0,0-.7-1.4l-.1-12.8A18.43,18.43,0,0,0,23.08,0V8.6a11.31,11.31,0,0,1,11.3,10.7v7.6l-9.9-4.7a3.19,3.19,0,0,0-2.7,0L5.68,29.9A3.13,3.13,0,0,0,4.08,32l-4,17.3a3.1,3.1,0,0,0,.4,2.3l.2.2,11.2,13.9a3.3,3.3,0,0,0,2.4,1.2h17.9a3,3,0,0,0,2.4-1.2l11.2-13.9A3.08,3.08,0,0,0,46.28,49.3Z" transform="translate(-0.01 0)"/><path class="cls-1" d="M32.58,39.5h0l-4.2,3.7h0a.93.93,0,0,0-.1,1.3,2.29,2.29,0,0,0,.5.3h0l5.4,1.6A10.31,10.31,0,0,0,32.58,39.5Z" transform="translate(-0.01 0)"/><path class="cls-1" d="M28.08,48.1h-.2a1,1,0,0,0-.9,1,.37.37,0,0,0,.1.3h0l2.2,5.2a10.51,10.51,0,0,0,4.4-5.7Z" transform="translate(-0.01 0)"/><path class="cls-1" d="M24,50.9a1.05,1.05,0,0,0-.9-.5h0a1,1,0,0,0-.8.5h0l-2.7,4.9a10.24,10.24,0,0,0,6,.3l1.1-.3Z" transform="translate(-0.01 0)"/><path class="cls-3" d="M29.49,35.94A11.93,11.93,0,0,0,24.1,34c.06-.48.14-.91.18-1.35a6.18,6.18,0,0,0-.35-2.76,2.37,2.37,0,0,0-.37-.61.49.49,0,0,0-.82,0,2.22,2.22,0,0,0-.4.68,6.43,6.43,0,0,0-.3,2.92c0,.35.1.7.16,1.08a12,12,0,0,0-5.47,1.74c-.05-.11-.1-.2-.13-.28A7.5,7.5,0,0,0,14.82,33a3,3,0,0,0-1-.64c-.49-.15-.83.07-.81.58a3.84,3.84,0,0,0,.19,1A7.17,7.17,0,0,0,15,36.68l.21.21A12.21,12.21,0,0,0,13,39.39l1.52,1a9.87,9.87,0,0,1,8.56-4.54,9.84,9.84,0,0,1,8.43,4.77l1.55-.94a12.62,12.62,0,0,0-2.15-2.61l.18-.16a7.1,7.1,0,0,0,1.78-2.33,3.52,3.52,0,0,0,.45-1.62c0-.5-.33-.74-.8-.57a3.3,3.3,0,0,0-.78.43,6.38,6.38,0,0,0-1.72,2C29.84,35.18,29.69,35.55,29.49,35.94Zm1.71,15.6a10.09,10.09,0,0,1-16.47,0l-1.48,1a12.74,12.74,0,0,0,1.82,2.07l-.24.2a7.1,7.1,0,0,0-1.4,2A3.52,3.52,0,0,0,13,58.46c0,.5.33.74.8.57a2.82,2.82,0,0,0,.78-.43,7,7,0,0,0,2-2.53l.11-.21.16.08c.51.26,1,.55,1.54.77a10.55,10.55,0,0,0,3.5.88,2,2,0,0,1,.31.07,7.87,7.87,0,0,0-.05,2.9A3.15,3.15,0,0,0,22.67,62c.31.39.67.4,1,0a3,3,0,0,0,.41-.85,7,7,0,0,0,.14-3.28l0-.27A12.8,12.8,0,0,0,27,57a12.56,12.56,0,0,0,2.59-1.3l.14.28a7.32,7.32,0,0,0,1.78,2.45,2.88,2.88,0,0,0,1.05.66c.47.14.79-.08.79-.55a2.81,2.81,0,0,0-.08-.71,6.76,6.76,0,0,0-1.94-3.08,1.24,1.24,0,0,0-.28-.19,12.23,12.23,0,0,0,1.65-1.94Zm1.45-1.25c0-1,0-1.9,0-2.83s-.16-1.85-.24-2.78l.07,0c.32.81.54,1.64.85,2.45s.61,1.63.91,2.44h1.2L36,47.9l.59-1.62a15.72,15.72,0,0,1,.62-1.61c0,.94-.16,1.86-.2,2.79s0,1.88,0,2.82h2V41.73H36.63c-.3.84-.59,1.67-.88,2.5s-.56,1.68-.84,2.52c-.34-.84-.61-1.68-.91-2.52s-.61-1.67-.92-2.49H30.71c-.07.34-.05,8.37,0,8.55ZM7.16,41.73v8.55H9.38v-3.4H12v3.4H14.2c.07-.39,0-8.34,0-8.54H12V44.9H9.37V41.73Zm9,0v8.55H21.8V48.42H18.43V46.81H21.2V45H18.43V43.55h3.25V41.73Zm9.65,6.7V41.71H23.62v8.57h5.46V48.43Z" transform="translate(-0.01 0)"/></svg>